<?xml version="1.0" encoding="utf-8"?>
<!-- Generator: Adobe Illustrator 27.9.0, SVG Export Plug-In . SVG Version: 6.00 Build 0)  -->
<svg version="1.1" id="Layer_1" xmlns="http://www.w3.org/2000/svg" xmlns:xlink="http://www.w3.org/1999/xlink" x="0px" y="0px"
	 viewBox="0 0 951.5 381.8" style="enable-background:new 0 0 951.5 381.8;" xml:space="preserve">
<style type="text/css">
	.st0{fill:#FFFFFF;}
</style>
<g>
	<path class="st0" d="M78.5,240.4c-0.1-0.3-0.2-0.5-0.4-0.8c-3.5-8.5-6.1-17.2-7.7-26.2c-1.5-8.2-2.2-16.6-2-25
		c0.4-18.4,4.6-35.9,12.7-52.5c6.3-13,14.5-24.5,24.7-34.7c15.8-15.7,34.6-26.5,56.1-32.3c5.5-1.5,11-2.6,16.7-3.4
		c6.9-0.9,13.9-1.3,20.9-1c28.6,1.2,53.9,10.8,76.1,28.9c7.9,6.4,14.8,13.7,20.9,21.8c0.3,0.4,0.4,0.8,0.3,1.4
		c-2.1,8.8-5.7,17.1-10.3,24.9c-5,8.4-11,15.9-17.9,22.9c-10.2,10.4-21.6,19.1-33.9,26.8c-13.6,8.6-28,15.6-42.8,21.8
		c-15.2,6.3-30.8,11.4-46.7,15.8c-7.8,2.1-15.7,4.1-23.6,5.7c-5.5,1.1-11,2.1-16.6,3c-4.4,0.7-8.9,1.3-13.4,1.8
		c-4.3,0.5-8.6,0.8-12.9,1.2C78.7,240.4,78.6,240.4,78.5,240.4L78.5,240.4z"/>
	<path class="st0" d="M89.9,261.5c-1.9-2.9-3.7-5.8-5.4-8.9c0.3-0.1,0.6-0.1,0.8-0.1c3.7-0.3,7.5-0.5,11.2-0.9
		c4.3-0.5,8.6-1,12.9-1.6c6.9-1,13.7-2.3,20.5-3.8c17.4-3.8,34.3-9.1,50.7-16c16.9-7.1,33-15.6,48.2-26c10.8-7.4,21-15.6,30.4-24.7
		c10.1-9.9,19.2-20.7,26.5-32.9c5-8.3,9-16.9,11.8-26.2c0.2-0.8,0.5-1.7,0.8-2.7c0.2,0.2,0.3,0.3,0.4,0.4c1.7,2.6,3.4,5.2,5.1,7.7
		c0.3,0.5,0.3,0.9,0.3,1.5c-1.3,14.1-6.4,26.8-13.9,38.7c-5.6,8.8-12.4,16.6-20,23.8c-9.6,9.1-20.2,16.9-31.5,23.9
		c-12.9,7.9-26.4,14.6-40.3,20.4c-15.7,6.5-31.7,11.8-48.1,16.3c-7.6,2.1-15.3,4-23,5.6c-5.1,1-10.3,2-15.5,2.8
		c-4.3,0.7-8.6,1.3-12.9,1.8c-2.7,0.4-5.5,0.6-8.2,0.9C90.4,261.5,90.2,261.5,89.9,261.5L89.9,261.5z"/>
	<path class="st0" d="M99.1,273.5c0.8-0.1,1.6-0.2,2.3-0.3c3.3-0.4,6.6-0.7,9.8-1.2c3.9-0.5,7.7-1.1,11.6-1.8
		c6.4-1.1,12.7-2.4,18.9-3.9c15.6-3.8,30.7-8.8,45.5-15c19.8-8.4,38.4-18.8,55.6-31.6c8.4-6.3,16.4-13.1,23.9-20.6
		c9.1-9.1,17.2-19,23.9-30c5-8.2,9.1-16.8,12-26c1.3-4.3,2.3-8.6,3-13.1c0-0.1,0-0.2,0.1-0.4c0.2,0.2,0.2,0.3,0.3,0.4
		c1.1,2.1,2.2,4.2,3.2,6.3c0.1,0.3,0.2,0.6,0.2,0.9c0.3,3.6,0.3,7.2,0,10.9c-0.5,6-1.6,11.9-3.5,17.6c-3,9.5-7.6,18.2-13.4,26.3
		c-6.1,8.5-13.2,16.1-21,23.1c-10.4,9.3-21.9,17.2-34,24.1c-13.7,7.9-28.1,14.5-42.9,20.2c-15.3,5.9-31,10.7-46.9,14.8
		c-7.3,1.9-14.7,3.5-22.1,4.9c-5.1,0.9-10.2,1.7-15.3,2.5c-1,0.2-2,0.3-3,0.4c-0.3,0-0.6,0-0.8-0.2c-2.4-2.6-4.9-5.2-7.3-7.8
		C99.2,273.7,99.2,273.6,99.1,273.5L99.1,273.5z"/>
	<path class="st0" d="M120.5,293.2c3.8-0.6,7.5-1.3,11.3-2c9.2-1.7,18.3-3.9,27.3-6.4c17.7-5.1,34.8-11.7,51.2-20
		c17.6-8.9,34-19.5,49-32.2c11.6-9.9,22.1-20.7,31-33.1c6.1-8.4,11.2-17.4,15.1-27.1c2.4-6,4.2-12.2,5.4-18.6
		c0.6-3.4,1-6.8,1.1-10.3c0-0.1,0-0.3,0-0.6c0.2,0.3,0.2,0.5,0.3,0.6c1,3.1,1.6,6.2,2.1,9.3c0.7,4.6,1,9.1,0.9,13.7
		c-0.4,9.8-2.6,19.1-6.4,28c-3.9,9.2-9.2,17.6-15.5,25.3c-7.2,8.8-15.4,16.6-24.4,23.6c-11.5,9.1-24,16.7-37.1,23.4
		c-14.8,7.6-30.1,13.9-45.9,19.2c-12.6,4.3-25.4,8-38.4,11c-5.1,1.2-10.3,2.2-15.5,3.3c-0.4,0.1-0.8,0.1-1.2-0.1
		c-3.5-2.1-7-4.3-10.3-6.7c-0.1-0.1-0.2-0.1-0.3-0.1C120.4,293.3,120.5,293.2,120.5,293.2L120.5,293.2z"/>
	<path class="st0" d="M151.6,309.8c1.5-0.4,3-0.7,4.5-1.1c27.1-7,52.8-17.4,76.8-31.8c14.4-8.6,27.8-18.5,40-30
		c10.3-9.7,19.5-20.2,27.1-32.1c5.3-8.3,9.8-17.1,12.9-26.5c1.8-5.4,3.1-10.9,3.8-16.6c0.3-2.5,0.5-5.1,0.7-7.7
		c0.1,0.2,0.1,0.4,0.2,0.6c0.8,3.2,1.6,6.4,2.1,9.6c0.5,3.1,0.8,6.2,0.9,9.4c0.3,8.9-1.1,17.6-3.9,26.1
		c-3.4,10.1-8.5,19.3-14.8,27.8c-6.6,8.9-14.4,16.7-22.9,23.8c-11.2,9.4-23.5,17.4-36.3,24.3c-15.1,8.2-30.9,14.9-47.1,20.6
		c-8.8,3.1-17.6,5.8-26.6,8.3c-0.4,0.1-0.8,0.2-1.2,0.1c-5.3-1.2-10.5-2.7-15.6-4.5c-0.1,0-0.2-0.1-0.4-0.2
		C151.6,309.9,151.6,309.8,151.6,309.8L151.6,309.8z"/>
	<path class="st0" d="M321.4,198c-1,19.1-6.1,37.1-15.3,53.8c-12.2,22.1-29.4,39.2-51.6,51c-16.9,9-34.9,13.8-54,14.6
		c0.3-0.1,0.6-0.2,0.8-0.4c16.6-6.9,32.4-15.2,47.4-25.2c11.4-7.6,22.1-16.1,32-25.7c10-9.7,18.8-20.3,26.1-32.1
		c5.2-8.5,9.5-17.5,12.4-27.2c0.8-2.8,1.4-5.8,2.1-8.6C321.4,198.2,321.4,198.1,321.4,198L321.4,198z"/>
</g>
<g>
	<path class="st0" d="M428.5,67.7h16.5l23.4,65h-16.9l-3.8-11.7h-22.7l-3.7,11.7h-16.2L428.5,67.7L428.5,67.7z M444.1,109.4
		l-4.9-15.7c-1.1-3.4-2.5-9.2-2.5-9.2h-0.2c0,0-1.5,5.8-2.6,9.2l-5,15.7H444.1z"/>
	<path class="st0" d="M470,116.7V86.1h14.7v27.4c0,5.1,2.3,7.9,7,7.9c5.1,0,8.2-3.8,8.2-9.4v-26h14.8v46.5h-14.2v-5.7h-0.3
		c-3.4,4.5-7.5,7.1-13.9,7.1C475.6,134,470,127,470,116.7L470,116.7z"/>
	<path class="st0" d="M520.7,133.8H535c0.8,2.4,3.3,4.5,8.2,4.5c6.3,0,8.9-3.3,8.9-8.9v-4.6h-0.4c-2.7,3.1-6.3,5.4-11.9,5.4
		c-10.5,0-20.2-7.8-20.2-22.1s8-23.3,19.5-23.3c6.2,0,10.4,2.4,13.1,6.4h0.2v-5h14.2v42c0,7-2.5,12.1-6.2,15.4
		c-4.1,3.6-10.2,5.2-17.1,5.2C530.6,148.7,522.1,143.5,520.7,133.8L520.7,133.8z M552.7,107.5c0-6.3-3.3-11.5-9.5-11.5
		c-5.5,0-9.2,4.5-9.2,11.6s3.6,11.5,9.2,11.5C549.7,119.1,552.7,114,552.7,107.5z"/>
	<path class="st0" d="M573.7,86.2h14.2v6.6h0.3c2.9-4.8,7.4-8,14.1-8c6.1,0,10.7,3.2,13.1,8.2h0.2c3.6-5.6,8.6-8.2,14.6-8.2
		c10.5,0,15.8,7.2,15.8,17.6v30.2h-14.8V105c0-5-2.1-7.9-6.5-7.9c-4.7,0-7.4,3.9-7.4,9.4v26.1h-14.8V105c0-5-2.1-7.9-6.5-7.9
		s-7.4,3.9-7.4,9.4v26.1h-14.8L573.7,86.2L573.7,86.2z"/>
	<path class="st0" d="M650.6,109.3c0-13.9,9.7-24.5,23.9-24.5c6.6,0,11.9,2.2,15.9,5.8c5.5,5.1,8.3,13.2,8.2,22.6h-33.4
		c0.9,6.3,4.4,10.2,10.5,10.2c3.9,0,6.5-1.7,7.7-4.6h14.4c-1,4.2-3.7,8.2-7.8,11c-3.9,2.7-8.6,4.3-14.5,4.3
		C660,134,650.6,123.4,650.6,109.3L650.6,109.3z M683.6,104.4c-0.5-5.5-4-9.1-8.8-9.1c-5.6,0-8.5,3.5-9.5,9.1H683.6z"/>
	<path class="st0" d="M703.6,86.2h14.3v6.4h0.3c3.5-5,7.9-7.7,14.3-7.7c10.2,0,16.2,7.3,16.2,17.6v30.2h-14.8v-27.3
		c0-4.9-2.5-8.3-7.3-8.3s-8.2,4.1-8.2,9.8v25.7h-14.8L703.6,86.2L703.6,86.2z"/>
	<path class="st0" d="M758.1,120.4v-25h-6.2v-9.3h6.2V71.4h14.5v14.7h8.5v9.3h-8.5v21.8c0,3.6,2,4.5,5.2,4.5c1.3,0,2.7-0.1,3.3-0.1
		v10.8c-1.3,0.4-4.1,0.7-8.1,0.7C764.3,133.2,758.1,130.4,758.1,120.4z"/>
	<path class="st0" d="M783.8,109.3c0-13.9,9.7-24.5,23.9-24.5c6.6,0,11.9,2.2,15.9,5.8c5.5,5.1,8.3,13.2,8.2,22.6h-33.4
		c0.9,6.3,4.4,10.2,10.5,10.2c3.9,0,6.5-1.7,7.7-4.6h14.4c-1,4.2-3.7,8.2-7.8,11c-3.9,2.7-8.6,4.3-14.5,4.3
		C793.2,134,783.8,123.4,783.8,109.3L783.8,109.3z M816.8,104.4c-0.5-5.5-4-9.1-8.8-9.1c-5.6,0-8.5,3.5-9.5,9.1H816.8z"/>
	<path class="st0" d="M834.7,109.4c0-14.5,8.4-24.6,20.3-24.6c6.5,0,10.3,2.7,13,6.6h0.3V67.7h14.8v65h-14.2v-6.3h-0.2
		c-2.8,4.8-7.6,7.7-13.7,7.7C843.1,134.1,834.7,124.9,834.7,109.4L834.7,109.4z M868.7,109.4c0-7.8-3.2-13.4-9.6-13.4
		c-5.9,0-9.4,5.4-9.4,13.3s3.5,13.2,9.2,13.2C865,122.4,868.7,117,868.7,109.4L868.7,109.4z"/>
	<path class="st0" d="M409.7,157.7h16.1v24.6h22.8v-24.6h16.1v65h-16.1v-27.1h-22.8v27.1h-16.1V157.7L409.7,157.7z"/>
	<path class="st0" d="M472.3,206.7v-30.5h14.7v27.4c0,5.1,2.3,7.9,7,7.9c5.1,0,8.2-3.8,8.2-9.4v-26H517v46.5h-14.2v-5.7h-0.3
		c-3.4,4.5-7.5,7.1-13.9,7.1C478,224,472.4,217,472.3,206.7L472.3,206.7z"/>
	<path class="st0" d="M524.1,176.1h14.2v6.6h0.3c2.9-4.8,7.4-8,14.1-8c6.1,0,10.7,3.2,13.1,8.2h0.2c3.6-5.6,8.6-8.2,14.6-8.2
		c10.5,0,15.8,7.2,15.8,17.6v30.2h-14.8V195c0-5-2.1-7.9-6.5-7.9c-4.7,0-7.4,3.9-7.4,9.4v26.1h-14.8V195c0-5-2.1-7.9-6.5-7.9
		s-7.4,3.9-7.4,9.4v26.1h-14.8L524.1,176.1L524.1,176.1z"/>
	<path class="st0" d="M600.9,209.7c0-10.3,8.2-13.4,17.8-14.6c8.7-1.1,11.8-2,11.8-5.2c0-3-1.9-5-6.4-5c-4.7,0-7.1,2.1-7.5,6H603
		c0.4-8.6,7-16,21.1-16c7,0,11.7,1.3,15.1,3.8c4,2.9,5.9,7.4,5.9,13.3v23.4c0,3.7,0.4,5.8,1.6,6.6v0.6h-14.3c-0.7-1-1.2-2.8-1.5-5.2
		h-0.2c-2.7,3.9-6.8,6.4-13.8,6.4C607.5,223.8,600.9,218.8,600.9,209.7L600.9,209.7z M630.9,206v-5.5c-1.9,1-4.6,1.7-7.6,2.4
		c-5.7,1.3-8.1,2.7-8.1,6.3c0,3.7,2.7,5.2,6.4,5.2C627.1,214.4,630.9,211,630.9,206L630.9,206z"/>
	<path class="st0" d="M652.2,176.1h14.3v6.4h0.3c3.5-5,7.9-7.7,14.3-7.7c10.2,0,16.2,7.3,16.2,17.6v30.2h-14.8v-27.3
		c0-4.9-2.5-8.3-7.3-8.3s-8.2,4.1-8.2,9.8v25.7h-14.8L652.2,176.1L652.2,176.1z"/>
	<path class="st0" d="M409.7,247.7h16.1V299H455v13.6h-45.2V247.7L409.7,247.7z"/>
	<path class="st0" d="M458.9,299.7c0-10.3,8.2-13.4,17.8-14.6c8.7-1.1,11.8-2,11.8-5.2c0-3-1.9-5-6.4-5c-4.7,0-7.1,2.1-7.5,6H461
		c0.4-8.6,7-16,21.1-16c7,0,11.7,1.3,15.1,3.8c4,2.9,5.9,7.5,5.9,13.3v23.4c0,3.7,0.4,5.8,1.6,6.6v0.6h-14.4c-0.7-1-1.2-2.8-1.5-5.2
		h-0.2c-2.7,3.9-6.8,6.4-13.8,6.4C465.5,313.8,458.9,308.8,458.9,299.7L458.9,299.7z M488.9,296v-5.5c-1.9,1-4.6,1.7-7.6,2.5
		c-5.7,1.3-8.1,2.7-8.1,6.3c0,3.7,2.7,5.2,6.4,5.2C485,304.4,488.9,301,488.9,296L488.9,296z"/>
	<path class="st0" d="M524.6,306.8h-0.2v5.9h-14.2v-65H525v23.7h0.3c2.9-4,6.9-6.6,13.3-6.6c12.1,0,19.9,10.6,19.9,24.6
		c0,15.4-7.8,24.7-19.8,24.7C532.5,314.1,527.5,311.6,524.6,306.8L524.6,306.8z M543.5,289.3c0-8-3.2-13.3-9.2-13.3
		c-6.5,0-9.7,5.7-9.7,13.4s3.8,13,9.9,13S543.5,297.4,543.5,289.3L543.5,289.3z"/>
</g>
</svg>
